<svg xmlns="http://www.w3.org/2000/svg" viewBox="0 0 64 64" role="img" aria-labelledby="title">
  <title id="title">GitHub</title>
  <circle cx="32" cy="32" r="28" fill="#050505"/>
  <path fill="#fff" d="M32 14c-10 0-18 8-18 18 0 8 5 15 12 17 1 0 2-.5 2-1v-5c-5 1-6-2-6-2-1-2-2-3-2-3-2-1 0-1 0-1 2 0 3 2 3 2 2 3 5 2 6 2 .2-1 1-2 1-2-4-.5-8-2-8-9 0-2 1-4 2-5 0-.5-1-3 .2-5 0 0 2-.5 6 2 2-.5 4-.7 6-.7s4 .2 6 .7c4-2.5 6-2 6-2 1 2 .2 4.5.2 5 1 1 2 3 2 5 0 7-4 8.5-8 9 1 .8 1.5 2 1.5 4v6c0 .5 1 1 2 1 7-2 12-9 12-17 0-10-8-18-18-18Z"/>
</svg>
