<?xml version="1.0" encoding="UTF-8"?><svg id="Layer_2" xmlns="http://www.w3.org/2000/svg" viewBox="0 0 361.8 88.19"><defs><style>.cls-1{fill-rule:evenodd;}.cls-1,.cls-2{fill:#fff;stroke-width:0px;}</style></defs><g id="Layer_1-2"><path class="cls-1" d="M36.65,25.05L13.88,2.26h-.04l-.61-.53-.82-.49-.85-.38-.89-.27-.93-.19-.91-.12-.94-.06h-.89s-7,0-7,0v45.88h7.26l.52.04.49.13.49.19.49.25.46.28.45.34.42.36.32.28,12.3,12.31v9.08h2.91v-26.32l3.08,3.08v42.09h14.91v-42.09l3.07-3.08v26.32h2.93v-9.08l12.31-12.31.3-.28.42-.36.44-.34.48-.28.48-.25.48-.19.51-.13.52-.04h7.26V.22h-7.01c-.3,0-.6,0-.9,0-.3.02-.6.04-.91.06-.32.04-.62.08-.93.12-.3.07-.62.12-.93.19-.3.09-.59.19-.89.27-.29.12-.58.26-.86.38-.27.16-.54.33-.81.49-.22.17-.42.35-.64.53l-22.79,22.79ZM32.12,85.26v-39.83l-.38-.92-5.22-5.21,10.12-10.12,10.12,10.12-5.21,5.21-.37.92v39.83h-9.08ZM23.4,38.31h-6.76v2.77l2.56,2.52h3.01v-2.39h.99v14.92l-10.36-10.36h-.02s-.39-.35-.39-.35l-.62-.52-.66-.47-.71-.42-.76-.36-.78-.26-.81-.17-.82-.05H2.93V3.13h4.72l.66.04.68.06.67.12.63.15.61.24.72.4,22.96,22.98c-3.72,3.72-7.45,7.48-11.18,11.19M49.91,38.31h6.75v2.77l-2.55,2.52h-3.02v-2.39h-.97v14.92l10.35-10.36h.01s.39-.35.39-.35l.62-.52.67-.47.71-.42.75-.36.78-.26.81-.17.83-.05h4.36V3.13h-4.72c-.21.01-.44.03-.66.04-.22.02-.45.04-.68.06-.21.04-.44.08-.67.12-.22.04-.43.09-.63.15-.21.08-.41.16-.6.24-.26.13-.49.26-.72.4l-22.97,22.98c3.72,3.72,7.44,7.48,11.19,11.19"/><path class="cls-2" d="M130.77,43.95l-1.03-.06c-2.17-.15-4.62-2.21-7.29-6.11l-9.72-14.36c5.19-2.76,7.83-6.66,7.83-11.59,0-3.91-1.38-6.89-4.06-8.88-2.63-1.95-6.55-2.94-11.68-2.94-1.36,0-2.92.05-4.65.16-2.3.15-4.08.22-5.1.22-1.13,0-2.1-.02-2.87-.09-1.38-.09-2.14-.14-2.33-.14-1.51,0-1.67.86-1.67,1.22,0,.48.26,1.1,1.52,1.32l1.54.24c2.08.34,3.09,2.02,3.09,5.15l.07,26.9c0,3.61-.26,6.02-.77,7.19-.48,1.09-1.47,1.76-3.03,2.05-1.11.21-1.26.84-1.26,1.19,0,.59.36,1.24,1.37,1.24.33,0,.93-.06,1.83-.15.94-.1,1.83-.15,2.63-.15l1.68-.04,3.14.04c1.91,0,3.25.05,4.11.14,1.13.11,1.68.16,1.97.16.66,0,1.12-.15,1.39-.46.2-.22.29-.49.26-.78-.04-.5-.35-1.11-1.7-1.26-1.86-.18-3.24-.62-4.08-1.3-.59-.46-.96-.97-1.12-1.55-.17-.64-.26-1.9-.26-3.72l-.02-11.54c0-.32.05-.47.07-.53l.46-.08h4.36c.96,0,1.65.34,2.07,1.08l8.61,13.16c1.65,2.49,3.29,4.31,4.91,5.42,1.64,1.15,3.52,1.73,5.59,1.73,1.28,0,2.39-.14,3.38-.43.77-.2,1.8-.58,1.85-1.38.04-.35-.09-.57-.2-.72-.19-.21-.49-.33-.88-.35ZM100.51,5.74c0-.94.17-1.58.53-1.89.27-.23.89-.51,2.31-.51,3.28,0,6.03.98,8.14,2.92,2.13,1.96,3.16,4.39,3.16,7.42,0,2.6-.75,4.58-2.28,6.06-1.55,1.49-3.64,2.22-6.36,2.22h-3.71c-1.27,0-1.52-.25-1.52-.26-.03-.02-.24-.27-.24-1.55V6.79l-.03-1.06Z"/><path class="cls-2" d="M149.64,11.98c-2.46,0-4.88.47-7.22,1.38-2.34.93-4.31,2.19-5.84,3.75-1.46,1.48-2.64,3.35-3.48,5.55-.85,2.21-1.28,4.46-1.28,6.7,0,5.16,1.65,9.41,4.91,12.61,3.26,3.19,7.56,4.81,12.8,4.81s9.39-1.69,12.68-5.04c3.29-3.34,4.96-7.67,4.96-12.86,0-4.91-1.66-9.01-4.93-12.16-3.27-3.15-7.5-4.75-12.58-4.75ZM150.44,44.29c-3.83,0-7.12-1.59-9.77-4.73-2.67-3.17-4.01-7.13-4.01-11.76,0-4.03,1.06-7.28,3.11-9.63,2.07-2.36,4.79-3.51,8.33-3.51,4.1,0,7.57,1.52,10.32,4.55,2.76,3.03,4.15,6.88,4.15,11.45,0,3.95-1.16,7.25-3.44,9.82-2.27,2.53-5.2,3.83-8.69,3.83Z"/><path class="cls-2" d="M182.36,26.18c-3.66-1.21-5.06-1.77-5.59-2.03-.69-.34-1.34-.91-1.92-1.65-.66-.87-.99-1.91-.99-3.11,0-1.35.49-2.44,1.52-3.35,1.04-.91,2.35-1.37,3.9-1.37,2.03,0,3.9.53,5.54,1.58,1.63,1.04,2.71,2.37,3.24,3.94.25.76.61,1.52,1.3,1.52.26,0,1.06-.1,1.06-1.29,0-.13-.03-.49-.12-1.06l-.38-2.44c-.27-1.74-.3-2.2-.3-2.32,0-1.5-.7-1.72-1.14-1.72h0c-.36,0-.56.14-.67.27l-.28.24c-.2.17-.3.12-.44.07l-1.64-.69c-1.24-.52-2.76-.79-4.51-.79-3.12,0-5.73.87-7.74,2.55-2.03,1.73-3.06,3.98-3.06,6.7,0,2.44.79,4.45,2.36,6,1.54,1.49,4.12,2.86,7.67,4.07,4.12,1.38,5.53,2.14,5.98,2.53,1.28,1.11,1.9,2.42,1.9,4.03s-.68,3.07-2.06,4.26c-1.43,1.2-3.12,1.79-5.18,1.79s-3.91-.63-5.64-1.89c-1.72-1.24-2.86-2.81-3.39-4.67-.2-.65-.55-1.54-1.35-1.57-.49,0-1,.33-1,1.25,0,.66.2,1.71.63,3.19l.34,1.21c.14.53.23.84.25.92.29,1.35.42,1.65.46,1.75.13.31.39.58.76.85.75.49,1.9.92,3.41,1.29,1.5.36,2.89.54,4.15.54,3.5,0,6.42-.99,8.67-2.97,2.27-1.99,3.41-4.57,3.41-7.68,0-4.62-3.08-7.97-9.16-9.96Z"/><path class="cls-2" d="M206.75,26.18c-2.83-.93-4.82-1.65-5.6-2.03-.68-.34-1.33-.9-1.92-1.65-.67-.88-1.01-1.91-1.01-3.11,0-1.34.5-2.44,1.54-3.35,1.03-.91,2.34-1.37,3.9-1.37,2.06,0,3.87.52,5.54,1.58,1.62,1.04,2.71,2.36,3.24,3.94.23.71.6,1.53,1.3,1.53.26,0,1.06-.1,1.06-1.29,0-.13-.04-.49-.12-1.06l-.38-2.44c-.08-.55-.29-2-.29-2.32,0-1.5-.71-1.72-1.15-1.72h0c-.3,0-.54.11-.63.24l-.31.27c-.24.18-.31.12-.44.07l-1.62-.69c-1.25-.52-2.77-.79-4.53-.79-3.12,0-5.72.87-7.73,2.55-2.03,1.72-3.05,3.97-3.05,6.7,0,2.44.79,4.45,2.35,6,1.52,1.49,4.11,2.86,7.69,4.07,4.12,1.38,5.52,2.14,5.98,2.53,1.27,1.11,1.9,2.42,1.9,4.03s-.68,3.07-2.08,4.26c-1.41,1.2-3.11,1.79-5.16,1.79s-3.91-.63-5.64-1.89c-1.73-1.25-2.86-2.81-3.39-4.68-.14-.46-.48-1.53-1.35-1.56-.17,0-1.01.06-1.01,1.25,0,.67.21,1.75.64,3.19.37,1.3.55,2.01.58,2.14.27,1.23.4,1.58.46,1.75.13.32.4.58.78.85.75.5,1.88.92,3.39,1.29,1.52.36,2.89.54,4.16.54,3.49,0,6.41-.99,8.66-2.97,2.27-1.98,3.41-4.57,3.41-7.68,0-4.62-3.08-7.96-9.14-9.96Z"/><path class="cls-2" d="M324.57,12.34c-.32,0-.73.05-1.26.15-.51.08-1.26.12-2.26.12-1.85,0-3.26-.05-4.34-.16-.48-.05-.82-.07-1.04-.07-1.2,0-1.26.83-1.26,1.01,0,.28.11.95,1.17,1.13,1.52.26,2.56.62,3.1,1.11.5.47.85,1.32.99,2.47l.28,5.44-.03,14.4-21.79-24.67c-.51-.58-1.05-.88-1.61-.88-.11,0-.27.01-.44.01l-.79.04-2.54-.07c-.18-.02-.34-.03-.43-.03-.66,0-1.09.4-1.09,1,0,.22.08.94,1.13,1.08,1.47.19,2.57.99,3.36,2.41.83,1.5,1.23,3.59,1.23,6.2v16.18c0,1.6-.19,2.76-.61,3.43-.39.65-1.2,1.19-2.39,1.59-.58.19-.84.46-.95.74-.12-.3-.39-.6-1.09-.73-1.73-.3-2.42-.69-2.69-.96-.3-.28-.83-1.09-1.73-3.38l-10.72-27.45c-.53-1.36-1.75-1.4-2.36,0l-12.22,27.13-.68,1.55c-.33.69-.75,1.37-1.26,2-.66.83-.96.95-1.01.96l-.87.26c-.22.06-.38.19-.51.33-.4-.27-1.01-.37-1.31-.42-1.03-.14-1.72-.44-2.08-.86-.34-.41-.53-1.18-.53-2.25l-.57-15.92-.14-5.71c0-2.16.24-3.23.44-3.73.26-.64.69-1.01,1.32-1.16l1.03-.26c.54-.14.89-.55.89-1.1,0-.61-.4-1.02-1.07-1.02h0c-.19.02-.4.04-.71.05-.54.06-1.3.09-2.33.09-.31,0-.54,0-.73-.02-.59-.07-.96-.1-1.09-.1-.48,0-.81.11-1.03.34-.11.12-.31.36-.65,1.1l-11.15,23.92-.33.73-11.01-23.6-.26-.53c-.56-1.21-1.3-1.82-2.22-1.82-.24,0-.55.02-.92.06-.2.03-.77.05-2.42.05-1.09,0-1.44-.03-1.56-.05-.41-.03-.68-.04-.84-.04-.7,0-1.14.41-1.14,1.07,0,.29.11.96,1.17,1.14,1.58.29,2.69,1.01,3.34,2.22.7,1.26,1.05,3.28,1.05,6,0,1.3-.12,4.47-.35,9.43l-.34,6.9c-.1,2.3-.47,3.37-.76,3.88-.39.66-1.06,1.11-2.05,1.35-.93.18-1.01.79-1.01,1.04,0,.52.32,1.08,1.27,1.08.18,0,.47-.03.81-.07,1.02-.14,2.09-.22,3.24-.22.95,0,2.3.08,4.06.24.29.03.6.05.92.05.92,0,1.25-.57,1.25-1.09,0-.94-1.35-1.16-1.92-1.26-.61-.09-2.46-.37-2.46-4.08,0-2.94.01-4.84.05-5.77l.44-9.48,7.98,17.21.48,1.02c.39.72.59,1.14.66,1.27.16.37.66,1.49,1.59,1.49.6,0,1.11-.48,1.54-1.51l.39-.82c.36-.71.81-1.63,1.3-2.75l.38-.86c.97-2.14,1.5-3.35,1.6-3.57l2.44-5,2.11-4.53c.35-.69.93-1.78,1.72-3.18l.54,13.14.09,3.87c0,1.64-.21,2.39-.41,2.73-.24.44-.75.76-1.52.96-.91.25-1.02.84-1.02,1.08,0,.16.06.97,1.26.97.25,0,1.22-.04,2.89-.12,1.04-.07,1.8-.11,2.28-.11.64,0,1.3.04,1.94.1l1.87.2c.24,0,.44.01.62.01.56,0,.87-.14,1.08-.32.18.14.44.25.81.25.09,0,.55-.04,1.39-.13.24-.02.58-.03,1.01-.03.99,0,1.85.02,2.6.05l2.27.14c.39.02.66.02.84.02.46,0,.79-.11.99-.33.17-.18.24-.4.23-.65-.01-.31-.19-.88-1.18-1.07-1.28-.28-1.77-.58-1.93-.73-.25-.22-.37-.63-.37-1.2,0-.69.34-1.82,1-3.34l1.55-3.5c.63-1.4.9-1.63.95-1.67.03-.02.33-.18,1.87-.18h8.6c1.01,0,1.25.1,1.27.07.02.02.2.23.6,1.27l1.19,3.15c1.16,3,1.4,4.28,1.4,4.81,0,.81-.35,1-.74,1.07l-.72.16c-.95.19-1.05.79-1.05,1.03,0,.5.32,1.04,1.17,1.04.19,0,.46-.03.85-.11.35-.06,1.34-.13,4.03-.13,2.15,0,3.56.04,4.35.12.48.04.79.04.94.04.75,0,1.02-.33,1.13-.59.12.28.4.61,1.13.61.18,0,.49-.03.94-.09.55-.06,1.12-.1,1.71-.1l1.09-.03,2.41.11c.45.03,1.8.09,2.04.13.28.04.54.06.79.06.64,0,1.04-.4,1.04-1.03,0-.24-.08-1.03-1.25-1.15-1.41-.21-1.99-.51-2.23-.74-.32-.3-.54-.93-.62-1.78l-.08-1.65.03-17.13c0-.14,0-.25.01-.34l20.05,22.93.54.64c.23.23.52.36.93.39h.05c.61,0,1.05-.37,1.18-1.01.05-.28.12-.92.12-3.38l.06-24.04c0-1.75.2-2.51.38-2.83.24-.41.77-.72,1.59-.92.8-.24.89-.75.87-1.05-.05-.48-.39-1-1.22-1ZM278.54,30.3s-.19.09-.66.09h-7.81c-.36-.01-.5-.07-.54-.07h0s.06-.22.26-.64l4.56-10.11s.03.08.05.12l3.91,9.84.11.46c.07.2.07.3.12.31Z"/><path class="cls-2" d="M360.59,12.34c-.33,0-.75.05-1.27.15-.52.08-1.25.12-2.26.12-1.84,0-3.29-.05-4.34-.16-.49-.05-.84-.07-1.05-.07-1.19,0-1.25.83-1.25,1.01,0,.28.11.95,1.15,1.13,1.52.26,2.56.62,3.1,1.11.52.47.86,1.32.99,2.47l.3,5.44-.05,14.41-21.79-24.68c-.51-.59-1.05-.88-1.6-.88-.13,0-.27.01-.45.01l-.8.04-2.52-.07c-.2-.02-.35-.03-.44-.03-.65,0-1.08.4-1.08,1,0,.22.09.94,1.12,1.08,1.48.19,2.57.99,3.36,2.42.83,1.47,1.24,3.57,1.24,6.19v16.18c0,1.59-.21,2.75-.62,3.42-.4.66-1.2,1.2-2.38,1.6-.92.3-1.07.8-1.06,1.17.03.21.18.94,1.23.94.19,0,.51-.03.94-.09.56-.06,1.13-.1,1.72-.1l1.09-.03,2.41.11c.45.03,1.81.09,2.03.13.27.04.54.06.79.06.64,0,1.05-.4,1.05-1.03,0-.24-.1-1.03-1.26-1.15-1.41-.21-1.99-.52-2.23-.74-.22-.2-.51-.69-.62-1.78l-.07-1.67v-17.12c.01-.15.02-.26.03-.34l20.06,22.93.55.65c.23.22.53.35.92.38h.06c.61,0,1.05-.38,1.16-1.01.06-.27.13-.91.13-3.38l.06-24.04c0-1.75.22-2.51.38-2.83.23-.41.75-.72,1.58-.92.87-.26.9-.82.88-1.04-.03-.49-.37-1.01-1.21-1.01Z"/><path class="cls-2" d="M104.09,61.72v13.12h4.5v2.17h-6.8v-15.29h2.31Z"/><path class="cls-2" d="M120.6,73.29h-6.54l-1.7,3.71h-2.49l7.56-16.25,7.3,16.25h-2.52l-1.6-3.71ZM119.66,71.13l-2.27-5.2-2.38,5.2h4.64Z"/><path class="cls-2" d="M135.2,70.8v6.21h-2.31v-15.29h2.61c1.28,0,2.25.09,2.9.27.66.18,1.24.51,1.74,1.01.88.86,1.32,1.94,1.32,3.25,0,1.4-.47,2.51-1.41,3.33-.94.82-2.2,1.23-3.79,1.23h-1.07ZM135.2,68.66h.86c2.12,0,3.18-.81,3.18-2.45s-1.09-2.37-3.28-2.37h-.76v4.81Z"/><path class="cls-2" d="M151.7,73.29h-6.54l-1.7,3.71h-2.49l7.56-16.25,7.3,16.25h-2.52l-1.6-3.71ZM150.76,71.13l-2.27-5.2-2.38,5.2h4.64Z"/><path class="cls-2" d="M166.38,64l-1.87,1.11c-.35-.61-.68-1-1-1.19-.33-.21-.76-.32-1.28-.32-.64,0-1.17.18-1.59.54-.42.36-.63.81-.63,1.35,0,.75.55,1.35,1.66,1.8l1.52.62c1.24.5,2.15,1.11,2.72,1.84s.86,1.61.86,2.66c0,1.41-.47,2.57-1.41,3.48-.94.92-2.12,1.39-3.51,1.39-1.33,0-2.42-.39-3.29-1.18-.85-.79-1.38-1.89-1.59-3.32l2.34-.51c.11.9.29,1.52.55,1.86.47.66,1.17.99,2.08.99.72,0,1.32-.24,1.79-.72.47-.48.71-1.09.71-1.83,0-.3-.04-.57-.12-.82-.08-.25-.21-.48-.39-.68-.17-.21-.4-.4-.68-.58-.28-.18-.61-.35-.99-.52l-1.47-.61c-2.09-.88-3.14-2.18-3.14-3.88,0-1.15.44-2.11,1.32-2.88.88-.78,1.97-1.17,3.28-1.17,1.76,0,3.14.86,4.13,2.57Z"/><path class="cls-2" d="M178.2,64l-1.87,1.11c-.35-.61-.68-1-1-1.19-.33-.21-.76-.32-1.28-.32-.64,0-1.17.18-1.59.54-.42.36-.63.81-.63,1.35,0,.75.55,1.35,1.66,1.8l1.52.62c1.24.5,2.15,1.11,2.72,1.84s.86,1.61.86,2.66c0,1.41-.47,2.57-1.41,3.48-.94.92-2.12,1.39-3.51,1.39-1.33,0-2.42-.39-3.29-1.18-.85-.79-1.38-1.89-1.59-3.32l2.34-.51c.11.9.29,1.52.55,1.86.47.66,1.17.99,2.08.99.72,0,1.32-.24,1.79-.72.47-.48.71-1.09.71-1.83,0-.3-.04-.57-.12-.82-.08-.25-.21-.48-.39-.68-.17-.21-.4-.4-.68-.58-.28-.18-.61-.35-.99-.52l-1.47-.61c-2.09-.88-3.14-2.18-3.14-3.88,0-1.15.44-2.11,1.32-2.88.88-.78,1.97-1.17,3.28-1.17,1.76,0,3.14.86,4.13,2.57Z"/><path class="cls-2" d="M183.69,61.72v15.29h-2.31v-15.29h2.31Z"/><path class="cls-2" d="M186.6,69.29c0-2.15.79-4,2.37-5.54,1.57-1.54,3.46-2.32,5.66-2.32s4.05.78,5.6,2.34c1.56,1.56,2.35,3.43,2.35,5.61s-.79,4.06-2.36,5.59c-1.58,1.54-3.48,2.31-5.71,2.31-1.97,0-3.75-.68-5.32-2.05-1.73-1.51-2.59-3.49-2.59-5.94ZM188.93,69.32c0,1.69.57,3.08,1.7,4.17,1.13,1.09,2.43,1.63,3.91,1.63,1.6,0,2.96-.55,4.06-1.66,1.1-1.12,1.65-2.49,1.65-4.1s-.54-3-1.63-4.1c-1.08-1.11-2.42-1.66-4.02-1.66s-2.93.55-4.03,1.66c-1.1,1.1-1.64,2.45-1.64,4.06Z"/><path class="cls-2" d="M205.48,77.01v-16.32l11.15,11.66v-10.62h2.31v16.22l-11.15-11.63v10.7h-2.31Z"/><path class="cls-2" d="M228.85,77.01v-15.29h3.21c1.54,0,2.75.15,3.64.46.96.3,1.83.8,2.6,1.51,1.58,1.44,2.37,3.33,2.37,5.67s-.82,4.25-2.46,5.7c-.83.73-1.69,1.23-2.59,1.51-.84.28-2.04.43-3.59.43h-3.17ZM231.16,74.84h1.04c1.04,0,1.9-.11,2.58-.33.69-.23,1.31-.6,1.86-1.1,1.14-1.04,1.7-2.39,1.7-4.05s-.56-3.04-1.68-4.08c-1.01-.93-2.5-1.4-4.46-1.4h-1.04v10.95Z"/><path class="cls-2" d="M245.23,61.06l1.98.77-2.82,5.66-1.5-.62,2.35-5.81Z"/><path class="cls-2" d="M258.63,63.89h-6.13v3.67h5.95v2.17h-5.95v5.11h6.13v2.17h-8.43v-15.29h8.43v2.17Z"/><path class="cls-2" d="M261.12,77.01l3.22-16.43,5.25,11.88,5.44-11.88,2.89,16.43h-2.37l-1.48-9.23-4.52,9.93-4.4-9.94-1.64,9.24h-2.39Z"/><path class="cls-2" d="M281.15,77.01v-15.29h2.3c1.02,0,1.84.08,2.45.24.61.16,1.13.43,1.55.8.43.39.77.87,1.02,1.46.26.59.39,1.18.39,1.78,0,1.1-.42,2.02-1.26,2.78.81.28,1.45.76,1.92,1.46.48.69.71,1.48.71,2.4,0,1.19-.42,2.2-1.27,3.03-.51.51-1.08.86-1.71,1.06-.69.19-1.56.29-2.6.29h-3.5ZM283.46,68.28h.72c.86,0,1.49-.19,1.89-.57.4-.38.6-.94.6-1.68s-.21-1.27-.61-1.64c-.41-.37-1-.56-1.78-.56h-.81v4.44ZM283.46,74.84h1.43c1.04,0,1.81-.2,2.3-.61.51-.44.77-1,.77-1.68s-.25-1.21-.74-1.66c-.48-.44-1.34-.66-2.58-.66h-1.17v4.62Z"/><path class="cls-2" d="M301.89,73.29h-6.54l-1.7,3.71h-2.49l7.56-16.25,7.3,16.25h-2.52l-1.6-3.71ZM300.95,71.13l-2.27-5.2-2.38,5.2h4.64Z"/><path class="cls-2" d="M310.24,61.72v13.12h4.5v2.17h-6.8v-15.29h2.31Z"/><path class="cls-2" d="M319.22,61.72v13.12h4.5v2.17h-6.8v-15.29h2.31Z"/><path class="cls-2" d="M334.34,63.89h-6.13v3.67h5.95v2.17h-5.95v5.11h6.13v2.17h-8.43v-15.29h8.43v2.17Z"/><path class="cls-2" d="M342.55,70.49l4.73,6.51h-2.82l-4.37-6.26h-.42v6.26h-2.31v-15.29h2.7c2.02,0,3.48.38,4.38,1.14.99.84,1.49,1.96,1.49,3.35,0,1.08-.31,2.01-.93,2.79s-1.44,1.28-2.46,1.49ZM339.68,68.74h.73c2.18,0,3.28-.83,3.28-2.5,0-1.56-1.06-2.35-3.19-2.35h-.82v4.85Z"/></g></svg>